<?xml version="1.0" encoding="UTF-8" standalone="no"?>
<!-- Created with Inkscape (http://www.inkscape.org/) -->

<svg
   xmlns:dc="http://purl.org/dc/elements/1.1/"
   xmlns:cc="http://creativecommons.org/ns#"
   xmlns:rdf="http://www.w3.org/1999/02/22-rdf-syntax-ns#"
   xmlns:svg="http://www.w3.org/2000/svg"
   xmlns="http://www.w3.org/2000/svg"
   xmlns:xlink="http://www.w3.org/1999/xlink"
   xmlns:sodipodi="http://sodipodi.sourceforge.net/DTD/sodipodi-0.dtd"
   xmlns:inkscape="http://www.inkscape.org/namespaces/inkscape"
   width="168"
   height="168"
   viewBox="0 0 168 168"
   id="svg2"
   version="1.1"
   inkscape:version="0.91 r13725"
   sodipodi:docname="border.svg"
   inkscape:export-filename="/home/simon/src/Themes/Enlightenment-Themes/enlightenment-elementary/img-manual/frame_fill_4x.png"
   inkscape:export-xdpi="45"
   inkscape:export-ydpi="45">
  <defs
     id="defs4">
    <linearGradient
       id="linearGradient4511"
       inkscape:collect="always">
      <stop
         id="stop4513"
         offset="0"
         style="stop-color:#000000;stop-opacity:1;" />
      <stop
         id="stop4515"
         offset="1"
         style="stop-color:#363636;stop-opacity:0.87843138" />
    </linearGradient>
    <linearGradient
       inkscape:collect="always"
       id="linearGradient4765">
      <stop
         style="stop-color:#3399ff;stop-opacity:1"
         offset="0"
         id="stop4767" />
      <stop
         style="stop-color:#3399ff;stop-opacity:0"
         offset="1"
         id="stop4769" />
    </linearGradient>
    <linearGradient
       inkscape:collect="always"
       id="linearGradient4749">
      <stop
         style="stop-color:#000000;stop-opacity:1;"
         offset="0"
         id="stop4751" />
      <stop
         style="stop-color:#363636;stop-opacity:0.87843138"
         offset="1"
         id="stop4753" />
    </linearGradient>
    <linearGradient
       id="linearGradient4151"
       inkscape:collect="always">
      <stop
         id="stop4153"
         offset="0"
         style="stop-color:#000000;stop-opacity:1;" />
      <stop
         id="stop4155"
         offset="1"
         style="stop-color:#363636;stop-opacity:0.87843138" />
    </linearGradient>
    <linearGradient
       inkscape:collect="always"
       xlink:href="#linearGradient4749"
       id="linearGradient4184"
       x1="16"
       y1="900.36218"
       x2="98.58271"
       y2="982.94489"
       gradientUnits="userSpaceOnUse"
       gradientTransform="matrix(1.0596828,0,0,1.0596828,181.48077,-55.783421)" />
    <linearGradient
       gradientTransform="matrix(0.95030779,0,0,0.95447627,-341.62302,-1886.0055)"
       inkscape:collect="always"
       xlink:href="#linearGradient4151"
       id="linearGradient4184-0"
       x1="16"
       y1="900.36218"
       x2="109.09713"
       y2="993.40253"
       gradientUnits="userSpaceOnUse" />
    <linearGradient
       inkscape:collect="always"
       xlink:href="#linearGradient4765"
       id="linearGradient4771"
       x1="97.428574"
       y1="889.29077"
       x2="97.428574"
       y2="929.29077"
       gradientUnits="userSpaceOnUse"
       gradientTransform="translate(179.80431,28.892723)" />
    <linearGradient
       gradientTransform="translate(-0.33498,882.37449)"
       inkscape:collect="always"
       xlink:href="#linearGradient4749"
       id="linearGradient4360-6"
       x1="48"
       y1="48"
       x2="104"
       y2="104"
       gradientUnits="userSpaceOnUse" />
    <linearGradient
       inkscape:collect="always"
       xlink:href="#linearGradient4749"
       id="linearGradient4445"
       x1="136.72046"
       y1="49.966228"
       x2="146.95685"
       y2="44.893051"
       gradientUnits="userSpaceOnUse"
       gradientTransform="translate(0,720.36219)" />
    <linearGradient
       inkscape:collect="always"
       xlink:href="#linearGradient4151"
       id="linearGradient4464"
       x1="99.967155"
       y1="988.36218"
       x2="68.032845"
       y2="952.36218"
       gradientUnits="userSpaceOnUse"
       gradientTransform="matrix(1.0020572,0,0,1,-0.17280524,-164)" />
    <linearGradient
       inkscape:collect="always"
       xlink:href="#linearGradient4511"
       id="linearGradient4502"
       x1="135.40714"
       y1="38.724201"
       x2="126.46903"
       y2="42.724205"
       gradientUnits="userSpaceOnUse"
       gradientTransform="translate(0,720.36219)" />
    <linearGradient
       inkscape:collect="always"
       xlink:href="#linearGradient4749"
       id="linearGradient4509"
       gradientUnits="userSpaceOnUse"
       x1="64"
       y1="64"
       x2="112"
       y2="112"
       gradientTransform="translate(0,720.36219)" />
    <linearGradient
       gradientTransform="matrix(0,1,1,0,0.06232142,720.55702)"
       inkscape:collect="always"
       xlink:href="#linearGradient4511"
       id="linearGradient4502-0-6"
       x1="135.40714"
       y1="38.724201"
       x2="126.46903"
       y2="42.724205"
       gradientUnits="userSpaceOnUse" />
    <linearGradient
       gradientTransform="matrix(0,1,1,0,0.03478304,720.36322)"
       inkscape:collect="always"
       xlink:href="#linearGradient4511"
       id="linearGradient4445-2"
       x1="136.72046"
       y1="49.966228"
       x2="146.95685"
       y2="44.893051"
       gradientUnits="userSpaceOnUse" />
  </defs>
  <sodipodi:namedview
     id="base"
     pagecolor="#ffffff"
     bordercolor="#666666"
     borderopacity="1.0"
     inkscape:pageopacity="0.0"
     inkscape:pageshadow="2"
     inkscape:zoom="4.0933436"
     inkscape:cx="63.949195"
     inkscape:cy="84.195454"
     inkscape:document-units="px"
     inkscape:current-layer="layer1"
     showgrid="true"
     units="px"
     inkscape:window-width="1365"
     inkscape:window-height="707"
     inkscape:window-x="0"
     inkscape:window-y="0"
     inkscape:window-maximized="1"
     guidetolerance="1"
     gridtolerance="1">
    <inkscape:grid
       type="xygrid"
       id="grid3374"
       spacingx="4"
       spacingy="4"
       empspacing="4" />
  </sodipodi:namedview>
  <metadata
     id="metadata7">
    <rdf:RDF>
      <cc:Work
         rdf:about="">
        <dc:format>image/svg+xml</dc:format>
        <dc:type
           rdf:resource="http://purl.org/dc/dcmitype/StillImage" />
        <dc:title />
        <cc:license
           rdf:resource="http://creativecommons.org/licenses/by-sa/3.0/" />
      </cc:Work>
      <cc:License
         rdf:about="http://creativecommons.org/licenses/by-sa/3.0/">
        <cc:permits
           rdf:resource="http://creativecommons.org/ns#Reproduction" />
        <cc:permits
           rdf:resource="http://creativecommons.org/ns#Distribution" />
        <cc:requires
           rdf:resource="http://creativecommons.org/ns#Notice" />
        <cc:requires
           rdf:resource="http://creativecommons.org/ns#Attribution" />
        <cc:permits
           rdf:resource="http://creativecommons.org/ns#DerivativeWorks" />
        <cc:requires
           rdf:resource="http://creativecommons.org/ns#ShareAlike" />
      </cc:License>
    </rdf:RDF>
  </metadata>
  <g
     inkscape:label="Layer 1"
     inkscape:groupmode="layer"
     id="layer1"
     transform="translate(0,-884.36219)">
    <rect
       style="opacity:1;fill:#000000;fill-opacity:0;fill-rule:evenodd;stroke:url(#linearGradient4184);stroke-width:8.47746181;stroke-linecap:butt;stroke-linejoin:miter;stroke-miterlimit:4;stroke-dasharray:none;stroke-opacity:1"
       id="rect3376"
       width="143.97446"
       height="143.97446"
       x="194.00055"
       y="893.8797"
       ry="31.994329" />
    <rect
       style="opacity:1;fill:#000000;fill-opacity:0;fill-rule:evenodd;stroke:url(#linearGradient4184-0);stroke-width:7.61899996;stroke-linecap:butt;stroke-linejoin:miter;stroke-miterlimit:4;stroke-dasharray:none;stroke-opacity:1"
       id="rect3376-3"
       width="129.11417"
       height="129.68051"
       x="-330.39545"
       y="-1030.6259"
       ry="28.817894"
       transform="scale(-1,-1)" />
    <path
       style="fill:#cccccc;fill-rule:evenodd;stroke:url(#linearGradient4771);stroke-width:32;stroke-linecap:butt;stroke-linejoin:miter;stroke-miterlimit:4;stroke-dasharray:none;stroke-opacity:1"
       d="m 227.80431,941.25491 64,0 8,0"
       id="path4763"
       inkscape:connector-curvature="0" />
    <path
       style="opacity:1;fill:#000000;fill-opacity:0.86666667;stroke:url(#linearGradient4360-6);stroke-width:0;stroke-miterlimit:4;stroke-dasharray:none;stroke-opacity:1"
       d="m 48.14744,890.49167 c -22.38767,0 -40.41211,18.02249 -40.41211,40.41016 l 0,71.21487 c 0,22.3877 18.02444,40.4102 40.41211,40.4102 l 71.64258,0 c 22.38767,0 40.53235,-18.0229 40.41016,-40.4102 l -0.39081,-71.60568 c -0.12219,-22.38734 -17.63168,-40.01935 -40.01935,-40.01935 z m 3.71289,8.41016 64,0 c 19.94401,0 36,16.056 36,36 l 0,64 c 0,19.94407 -16.05599,36.00007 -36,36.00007 l -64,0 c -19.944,0 -36,-16.056 -36,-36.00007 l 0,-64 c 0,-19.944 16.056,-36 36,-36 z"
       id="rect4336-4"
       inkscape:connector-curvature="0"
       sodipodi:nodetypes="ssssssssssssssssss" />
    <path
       inkscape:connector-curvature="0"
       style="opacity:1;fill:#363636;fill-opacity:0.86666667;stroke:#3399ff;stroke-width:0;stroke-miterlimit:4;stroke-dasharray:none;stroke-opacity:1"
       d="m 51.86424,898.90378 c -19.94401,0 -36,16.056 -36,36 l 0,64.00001 c 0,19.94401 16.05599,36.00001 36,36.00001 l 64,0 c 19.944,0 36,-16.056 36,-36.00001 l 0,-64.00001 c 0,-19.944 -16.056,-36 -36,-36 l -64,0 z m 3.99609,7.99805 56,0 c 17.72801,0 32,14.272 32,32 l 0,56 c 0,17.72807 -14.27199,32.00007 -32,32.00007 l -56,0 c -17.728,0 -32,-14.272 -32,-32.00007 l 0,-56 c 0,-17.728 14.272,-32 32,-32 z"
       id="rect4362-2" />
    <path
       style="opacity:1;fill:url(#linearGradient4509);fill-opacity:1;stroke:#000000;stroke-width:0;stroke-miterlimit:4;stroke-dasharray:none;stroke-opacity:1"
       d="m 60,728.36219 c -28.808004,0 -52,23.192 -52,52 l 0,35.45898 7.917969,0 0,8.57032 c 0,26.59201 21.408,48.00001 48,48.00001 l 0.404297,0 0,7.9707 43.677734,0 c 28.808,0 52,-23.192 52,-52.00001 l 0,-43.5957 -8,0 0,39.5957 c 0,26.59201 -21.408,48.00001 -48,48.00001 l -40,0 c -26.592004,0 -48,-21.408 -48,-48.00001 l 0,-40 c 0,-26.592 21.407996,-48 48,-48 l 31.429688,0 0,-8 -35.429688,0 z m 4.322266,152.00001 -4.322266,0 c -28.808004,0 -52,-23.192 -52,-52.00001 l 0,-12.54102 -0.082031,0 0,12.57032 c -1e-7,28.80801 23.19201,52.00001 52,52.00001 l 4.404297,0 0,-0.029 z"
       id="path4507"
       inkscape:connector-curvature="0" />
    <path
       style="opacity:1;fill:url(#linearGradient4445);fill-opacity:1;stroke:#000000;stroke-width:0;stroke-miterlimit:4;stroke-dasharray:none;stroke-opacity:1"
       d="m 95.429688,728.36219 0,8 8.570312,0 c 26.592,0 48,21.408 48,48 l 0,0.4043 8,0 0,-4.4043 c 0,-28.808 -23.192,-52 -52,-52 l -12.570312,0 z"
       id="rect4424"
       inkscape:connector-curvature="0" />
    <path
       style="opacity:1;fill:url(#linearGradient4502);fill-opacity:1;stroke:#000000;stroke-width:0;stroke-miterlimit:4;stroke-dasharray:none;stroke-opacity:1"
       d="m 100,736.36219 0,8 c 23.00483,0 41.56047,17.54411 43.59961,40 l 7.89062,0 0,-6.48437 c -3.17577,-23.47126 -22.98029,-41.51563 -47.34961,-41.51563 l -4.14062,0 z"
       id="path4494"
       inkscape:connector-curvature="0" />
    <path
       style="opacity:1;fill:url(#linearGradient4464);fill-opacity:1;stroke:#000000;stroke-width:0;stroke-miterlimit:4;stroke-dasharray:none;stroke-opacity:1"
       d="m 63.859375,736.36219 c -26.592004,0 -48,21.408 -48,48 l 0,40 c 0,16.09881 7.854668,30.28731 19.947266,38.98631 -11.976125,-8.651 -19.746094,-22.6775 -19.746094,-38.6699 l 0,-4.14063 7.943359,0 C 24.003677,820.47908 24,820.42113 24,820.36219 l 0,-32 c 0,-24.376 19.623996,-44 44,-44 l 32,0 0,-8 -36.140625,0 z M 35.806641,863.3485 c 0.554176,0.3987 1.115833,0.7869 1.6875,1.1621 -0.570466,-0.3761 -1.134608,-0.7627 -1.6875,-1.1621 z m 115.683589,-85.47068 0,6.48437 -7.89062,0 c 0.12154,1.33845 0.40039,2.62883 0.40039,4 l 0,32 c 0,24.37601 -19.624,44.00001 -44,44.00001 l -32,0 c -1.328923,0 -2.641187,-0.069 -3.939453,-0.1836 l 0,7.8496 -5.816406,0 c 1.842514,0.213 3.713778,0.334 5.615234,0.334 l 40.281245,0 c 26.59202,0 48,-21.408 48,-48.00001 l 0,-40 c 0,-2.2227 -0.36073,-4.34359 -0.65039,-6.48437 z M 27.892578,838.5067 c 0.03135,0.07 0.06205,0.1396 0.09375,0.209 -0.03173,-0.069 -0.06237,-0.1394 -0.09375,-0.209 z m 0.861328,1.8028 c 0.04162,0.082 0.08288,0.1643 0.125,0.2461 -0.04216,-0.082 -0.08334,-0.164 -0.125,-0.2461 z m 0.964844,1.7988 c 0.03487,0.061 0.07031,0.1224 0.105469,0.1836 -0.03512,-0.061 -0.07064,-0.1222 -0.105469,-0.1836 z m 8.021484,22.5605 c 0.494479,0.3203 0.991145,0.6372 1.498047,0.9395 -0.506412,-0.3036 -1.004136,-0.6181 -1.498047,-0.9395 z m 2.388672,1.4493 c 0.304631,0.1729 0.605281,0.3511 0.914063,0.5175 -0.308024,-0.1669 -0.610201,-0.3441 -0.914063,-0.5175 z"
       id="rect4447"
       inkscape:connector-curvature="0" />
    <path
       inkscape:connector-curvature="0"
       style="opacity:1;fill:url(#linearGradient4502-0-6);fill-opacity:1;stroke:#000000;stroke-width:0;stroke-miterlimit:4;stroke-dasharray:none;stroke-opacity:1"
       d="m 16.062322,820.55701 8,0 c 0,23.00489 17.54413,41.56049 40.00001,43.59959 l 0,7.8906 -6.4844,0 c -23.47123,-3.1758 -41.51561,-22.9802 -41.51561,-47.34958 l 0,-4.14061 z"
       id="path4494-0-1" />
    <path
       inkscape:connector-curvature="0"
       style="opacity:1;fill:url(#linearGradient4445-2);fill-opacity:1;stroke:#000000;stroke-width:0;stroke-miterlimit:4;stroke-dasharray:none;stroke-opacity:1"
       d="m 8.034783,815.79291 8,0 0,8.57031 c 0,26.59208 21.40799,48.00008 47.99999,48.00008 l 0.4043,0 0,8 -4.4043,0 c -28.80799,0 -51.99999,-23.192 -51.99999,-52.00008 l 0,-12.57031 z"
       id="rect4424-6" />
    <rect
       style="opacity:1;fill:#000000;fill-opacity:0.86666667;fill-rule:nonzero;stroke:#000000;stroke-width:0;stroke-miterlimit:4;stroke-dasharray:none;stroke-opacity:1"
       id="rect4377"
       width="120.43904"
       height="120.43945"
       x="21.117985"
       y="1057.387" />
    <rect
       style="opacity:1;fill:#020200;fill-opacity:0.61445785;fill-rule:nonzero;stroke:#000000;stroke-width:0;stroke-miterlimit:4;stroke-dasharray:none;stroke-opacity:0"
       id="rect4403"
       width="119.89212"
       height="119.91516"
       x="23.900005"
       y="906.94"
       ry="31.65822" />
  </g>
</svg>
